<svg version="1.1" fill="#fff" xmlns="http://www.w3.org/2000/svg" viewBox="0 0 835.6 185.4" >
<g id="Layer_2">
	<g id="Layer_1-2">
		<path class="st0" d="M278.1,126.5c-0.9-17-3.4-33.8-7.6-50.3c-4.1-16-9.3-30.8-15.6-42.3C230.8-8.8,204.4-2.2,172.9,6.1
			c-10.1,2.4-20.8,5.2-31.9,6.2h-3.5c-11.1-1-21.8-3.8-31.9-6.3C74.1-2,47.8-9,23.5,34C17.2,45.4,11.7,60.3,7.8,76.2
			c-4.2,16.5-6.8,33.3-7.7,50.2C-0.6,144.2,1.2,157,5,166c3.8,8.3,9.3,13.5,16.6,15.6c6.6,1.7,14.2,1.1,22.2-2.4
			c13.5-5.5,29.1-17.3,44.4-31.5c10.8-10.4,30.9-15.6,51-15.5s40.2,5.2,50.9,15.6c15.2,14.2,30.8,26,44.3,31.6
			c8,3.1,15.6,4.2,22.2,2.4c6.9-2.1,12.8-6.9,16.6-15.9C277,157.3,278.8,144.5,278.1,126.5z M261.4,161.1c-2.1,4.9-4.9,7.6-8.3,8.6
			c-3.8,1-8.7,0.3-14.2-1.8c-12.1-4.9-26.3-15.6-40.2-28.8c-13.1-13.2-36.4-19.8-59.6-19.8s-46.4,6.5-60,19
			c-14.2,13.1-28.4,24.2-40.2,28.7c-5.5,2.1-10.4,3.1-14.2,1.7c-3.5-1-6.2-3.8-8.3-8.7c-2.8-6.6-4.1-17.3-3.4-33.3
			c0.8-16.2,3.3-32.2,7.4-47.9c3.8-14.9,8.7-28.8,14.6-39.1C54,5.6,76.2,11.2,102.5,18.1c10.7,2.8,21.8,5.6,34,6.6h5.2
			c12.5-1,23.6-3.8,34.3-6.5c26.4-6.6,48.5-12.4,67.6,21.9c5.9,10.4,10.7,23.9,14.5,39.2c3.8,15.9,6.5,32.6,7.2,47.8
			C266,143.1,264.5,153.8,261.4,161.1z"/>
		<path class="st0" d="M107.3,58.7c-3.5-3.1-7.6-5.5-12.5-5.9c-0.4-4.6-2.3-8.9-5.5-12.1L89,40.3c-3.7-3.8-8.9-6-14.2-5.9
			c-5.3,0-10.4,2.1-14.2,5.9c-3.4,3.3-5.5,7.7-5.9,12.5c-4.7,0.4-9.1,2.3-12.5,5.5l-0.3,0.3c-3.8,3.7-6,8.9-5.9,14.2
			c0,5.3,2.1,10.4,5.9,14.2c3.4,3.5,8,5.6,12.8,5.9c0.3,4.8,2.4,9.2,5.9,12.5c3.7,3.8,8.9,6,14.2,5.9c5.3,0,10.4-2.1,14.2-5.9
			c3.1-3.4,5.5-7.6,5.9-12.4c4.8-0.3,9.2-2.4,12.5-5.9c3.8-3.7,6-8.9,5.9-14.2C113.2,67.6,111.1,62.5,107.3,58.7z M98.6,78.1
			c-1.4,1.4-3.3,2.1-5.2,2.1h-4.8c-3.6,0-6.6,2.9-6.6,6.6v4.5c0,4-3.3,7.3-7.3,7.3c-4,0-7.3-3.3-7.3-7.3c0,0,0,0,0,0v-4.9
			c0-3.6-2.9-6.6-6.6-6.6c0,0,0,0,0,0H56c-3.9,0.1-7.2-3-7.3-7c0-1.9,0.7-3.8,2.1-5.2l0.3-0.3c1.4-1.1,3.1-1.7,4.8-1.7h4.8
			c3.6,0,6.6-2.9,6.6-6.5c0,0,0,0,0,0v-4.9c0-4.1,3.4-7.3,7.4-7.3c1.9,0,3.7,0.8,5.1,2.1l0.3,0.3c1,1.4,1.6,3.1,1.7,4.8V59
			c0,3.6,2.9,6.6,6.6,6.6c0,0,0,0,0,0h4.8c4.1,0,7.3,3.4,7.3,7.4C100.7,74.9,99.9,76.7,98.6,78.1L98.6,78.1z"/>

			<ellipse transform="matrix(1.221725e-03 -1 1 1.221725e-03 150.8907 247.8737)" class="st0" cx="199.5" cy="48.4" rx="12.1" ry="12.1"/>

			<ellipse transform="matrix(1.221725e-03 -1 1 1.221725e-03 101.6106 296.9736)" class="st0" cx="199.5" cy="97.6" rx="12.1" ry="12.1"/>

			<ellipse transform="matrix(1.221725e-03 -1 1 1.221725e-03 101.7107 247.7936)" class="st0" cx="174.9" cy="73" rx="12.1" ry="12.1"/>

			<ellipse transform="matrix(1.221725e-03 -1 1 1.221725e-03 150.8006 297.0637)" class="st0" cx="224.1" cy="73" rx="12.1" ry="12.1"/>
		<g class="st1">
			<path class="st0" d="M333.8,148l42.6-108.9l17.6,0l42.2,107.7l-20.8,2.9l-9.7-27.2l-41.3-0.1l-9.6,25.6L333.8,148z M370.4,105.6
				l28.8,0l-14.5-38L370.4,105.6z"/>
			<path class="st0" d="M482,91c-5.2,2.6-10,5.8-14.5,9.8l-0.1,47.4l-20.8,0l0.1-77.7l10.9,0l6.9,13c3.7-3.3,8.1-6.3,13.1-9
				c5-2.7,9.5-4,13.3-4l4.1,16.7C491.6,87.1,487.2,88.4,482,91z"/>
			<path class="st0" d="M542.1,68.5c3.6,0,8.1,0.8,13.5,2.3c5.3,1.5,9.8,3.5,13.5,5.9L563,91.6c-4.1-1.8-7.7-3.2-10.9-4
				c-3.2-0.9-6.5-1.3-9.9-1.3c-5.8,0-10.6,2.2-14.3,6.6c-3.8,4.4-5.7,9.9-5.7,16.7s1.9,12.2,5.6,16.5c3.7,4.3,8.5,6.4,14.4,6.4
				c3.4,0,6.7-0.4,9.9-1.3c3.2-0.8,6.8-2.2,10.9-4l5.9,15.1c-3.3,2.6-7.6,4.5-13,5.9c-5.3,1.4-10,2.1-13.9,2.1
				c-8.3,0-15.6-1.7-21.9-5c-6.2-3.3-11-8-14.4-14.2c-3.4-6.1-5-13.3-5-21.6c0-8.2,1.7-15.4,5.1-21.6c3.4-6.2,8.2-11,14.4-14.3
				C526.4,70.1,533.7,68.4,542.1,68.5z"/>
			<path class="st0" d="M611.2,87.8c-3.5,0-7.4,0.5-11.7,1.5c-4.3,1-7.9,2.2-10.9,3.6l-5.6-17.3c2.8-1.8,7.2-3.4,13.3-4.9
				c6.1-1.4,10.9-2.1,14.6-2.1c6.2,0,11.9,1.2,17,3.7c5.1,2.5,9.2,5.9,12.2,10.3c3,4.4,4.6,9.3,4.5,14.7l-0.1,51.1l-13.6,0l-3.5-8.3
				c-6.5,6.8-13.4,10.2-20.5,10.2c-9.3,0-16.3-2.3-21-6.8c-4.7-4.5-7-10.7-7-18.4c0-7.9,2.7-14,8-18.3c5.3-4.3,12.5-6.5,21.5-6.5
				l15.2,0c-0.1-4-1.2-7-3.4-9.2C618.1,88.9,615.1,87.8,611.2,87.8z M608.2,114.2c-3.4,0-6.2,1.1-8.3,3.2c-2.1,2.1-3.1,4.7-3.1,7.7
				c0,2.4,0.9,4.4,2.8,6.1c1.9,1.7,4.2,2.6,7.1,2.6c6.2,0,11.9-2.5,17.2-7.7l0-11.9L608.2,114.2z"/>
			<path class="st0" d="M734.1,148.5l-10.9,0l-4.8-7.1c-6.8,6-14.3,9-22.4,8.9c-12.1,0-21.6-3.7-28.6-11c-7-7.3-10.5-17.2-10.5-29.7
				c0-8.1,1.6-15.3,4.8-21.5c3.2-6.2,7.7-11,13.7-14.4c6-3.4,13.1-5.1,21.3-5.1c2.6,0,5.3,0.5,8.2,1.4c2.9,0.9,5.7,2.2,8.3,3.8
				l0-36.7l21-1.7L734.1,148.5z M696.7,132.6c2.8,0,5.5-0.5,8.1-1.6c2.6-1.1,5.4-2.7,8.3-4.8l0-33.2c-2.8-2.4-5.4-4-8-5.1
				c-2.6-1-5.3-1.5-8.3-1.5c-5.7,0-10.2,2.2-13.5,6.5c-3.3,4.3-5,9.9-5,16.7c0,6.8,1.6,12.4,4.9,16.6
				C686.5,130.5,691,132.6,696.7,132.6z"/>
			<path class="st0" d="M790,150.5c-8.3,0-15.6-1.7-21.9-5c-6.2-3.3-11.1-8-14.5-14.2c-3.4-6.1-5.1-13.3-5.1-21.6
				c0-8.2,1.7-15.4,5.2-21.6c3.4-6.2,8.3-11,14.5-14.3c6.3-3.4,13.5-5,21.9-5c8.3,0,15.6,1.7,21.9,5c6.2,3.3,11.1,8.1,14.5,14.2
				c3.4,6.1,5.1,13.3,5.1,21.6c0,8.2-1.7,15.4-5.2,21.6c-3.4,6.2-8.3,11-14.5,14.3C805.6,148.8,798.3,150.5,790,150.5z M810,109.5
				c0-6.7-1.9-12.2-5.6-16.5c-3.7-4.3-8.5-6.4-14.4-6.4c-5.8,0-10.6,2.2-14.3,6.6c-3.8,4.4-5.7,9.9-5.7,16.7
				c0,6.7,1.9,12.2,5.6,16.5c3.7,4.3,8.5,6.4,14.4,6.4c5.8,0,10.5-2.2,14.3-6.6C808.1,121.8,810,116.2,810,109.5z"/>
		</g>
	</g>
</g>
</svg>
